# xmcd
#
# Track frame offsets: 
#        182
#        13780
#        23670
#        36805
#        49575
#        62802
#        73005
#        87850
#        100997
#        112127
#        122690
#        136072
#        153745
#        164910
#        182605
#        194550
#        207032
#        228935
#
# Disc length: 3217 seconds
#
# Revision: 0
# Processed by: cddbd v1.4PL0 Copyright (c) Steve Scherf et al.
# Submitted via: ExactAudioCopy v0.90b3
#
DISCID=fb0c8f12
DTITLE=Tom Astor - Seine großen Erfolge
DYEAR=2000
DGENRE=Country
TTITLE0=Irgendwo am Horizont
TTITLE1=Danke Brummi
TTITLE2=Der Truck - das ist sein Leben
TTITLE3=Bleifuß Joe
TTITLE4=Truck Drivin' Girl
TTITLE5=Übermüdung tötet
TTITLE6=Truckers Glück
TTITLE7=Ich bin einer so wie du
TTITLE8=Ist das ein Leben! - So hart und schön
TTITLE9=Highway Helden
TTITLE10=Der kleine Trucker
TTITLE11=Lucille
TTITLE12=Panamerican Highway
TTITLE13=Mein Freund Charlie
TTITLE14=Guten Morgen, Deutschland
TTITLE15=Hier riecht's nach Freiheit
TTITLE16=Kameraden der Straße
TTITLE17=Von New York City nach L.A.
EXTD=
EXTT0=
EXTT1=
EXTT2=
EXTT3=
EXTT4=
EXTT5=
EXTT6=
EXTT7=
EXTT8=
EXTT9=
EXTT10=
EXTT11=
EXTT12=
EXTT13=
EXTT14=
EXTT15=
EXTT16=
EXTT17=
PLAYORDER=
